<svg width="30" height="32" viewBox="0 0 30 32" fill="none" xmlns="http://www.w3.org/2000/svg">
<path d="M15 12C14.0054 12 13.0516 12.4214 12.3483 13.1716C11.6451 13.9217 11.25 14.9391 11.25 16C11.25 17.0609 11.6451 18.0783 12.3483 18.8284C13.0516 19.5786 14.0054 20 15 20C15.9946 20 16.9484 19.5786 17.6517 18.8284C18.3549 18.0783 18.75 17.0609 18.75 16C18.75 14.9391 18.3549 13.9217 17.6517 13.1716C16.9484 12.4214 15.9946 12 15 12ZM15 22.6667C13.3424 22.6667 11.7527 21.9643 10.5806 20.714C9.40848 19.4638 8.75 17.7681 8.75 16C8.75 14.2319 9.40848 12.5362 10.5806 11.286C11.7527 10.0357 13.3424 9.33333 15 9.33333C16.6576 9.33333 18.2473 10.0357 19.4194 11.286C20.5915 12.5362 21.25 14.2319 21.25 16C21.25 17.7681 20.5915 19.4638 19.4194 20.714C18.2473 21.9643 16.6576 22.6667 15 22.6667ZM15 6C8.75 6 3.4125 10.1467 1.25 16C3.4125 21.8533 8.75 26 15 26C21.25 26 26.5875 21.8533 28.75 16C26.5875 10.1467 21.25 6 15 6Z" fill="#05606F"/>
</svg>
