<svg width="29" height="28" viewBox="0 0 29 28" fill="none" xmlns="http://www.w3.org/2000/svg">
<path fill-rule="evenodd" clip-rule="evenodd" d="M5.37506 3.2102C5.10158 2.95517 4.73531 2.81406 4.35512 2.81725C3.97494 2.82044 3.61126 2.96768 3.34242 3.22725C3.07358 3.48682 2.92108 3.83796 2.91778 4.20503C2.91448 4.57211 3.06063 4.92575 3.32476 5.1898L23.6248 24.7898C23.8982 25.0448 24.2645 25.1859 24.6447 25.1827C25.0249 25.1796 25.3886 25.0323 25.6574 24.7727C25.9262 24.5132 26.0787 24.162 26.082 23.795C26.0853 23.4279 25.9392 23.0742 25.6751 22.8102L23.5392 20.748C25.7985 19.0102 27.4688 16.6604 28.3358 14C26.4885 8.3202 20.993 4.2 14.4999 4.2C12.2269 4.19713 9.98537 4.71229 7.95751 5.7036L5.37506 3.2102ZM11.5535 9.1742L13.7488 11.2952C14.2405 11.1691 14.7578 11.17 15.2491 11.2976C15.7403 11.4253 16.1882 11.6753 16.5479 12.0226C16.9077 12.3699 17.1666 12.8024 17.2988 13.2767C17.431 13.751 17.4319 14.2505 17.3013 14.7252L19.4966 16.8448C20.1505 15.7752 20.4176 14.5261 20.2559 13.2939C20.0942 12.0618 19.5128 10.9165 18.6031 10.0382C17.6935 9.16 16.5073 8.59865 15.2312 8.44248C13.955 8.28632 12.6613 8.54282 11.5535 9.1742Z" fill="#05606F"/>
<path d="M18.0583 23.3758L14.1375 19.5888C12.7276 19.5035 11.3985 18.9244 10.3994 17.9601C9.40044 16.9958 8.80027 15.7126 8.71156 14.3514L3.38571 9.20917C2.1614 10.618 1.23657 12.2459 0.664062 14C2.51136 19.6798 8.00831 23.8 14.5 23.8C15.7281 23.8 16.92 23.653 18.0583 23.3758Z" fill="#05606F"/>
</svg>
