<svg width="35" height="36" viewBox="0 0 35 36" fill="none" xmlns="http://www.w3.org/2000/svg">
<path d="M17.5001 13.2605C16.2431 13.2605 15.0375 13.7598 14.1487 14.6487C13.2598 15.5375 12.7605 16.7431 12.7605 18.0001C12.7605 19.2571 13.2598 20.4626 14.1487 21.3515C15.0375 22.2403 16.2431 22.7397 17.5001 22.7397C18.7571 22.7397 19.9626 22.2403 20.8515 21.3515C21.7403 20.4626 22.2397 19.2571 22.2397 18.0001C22.2397 16.7431 21.7403 15.5375 20.8515 14.6487C19.9626 13.7598 18.7571 13.2605 17.5001 13.2605Z" fill="white"/>
<path fill-rule="evenodd" clip-rule="evenodd" d="M9.87291 4.99466C14.9421 4.4331 20.0579 4.4331 25.1271 4.99466C27.8964 5.30382 30.1292 7.48403 30.4544 10.2636C31.0551 15.4038 31.0551 20.5964 30.4544 25.7365C30.1292 28.5161 27.8965 30.6963 25.1285 31.007C20.0588 31.5686 14.9426 31.5686 9.87291 31.007C7.10353 30.6963 4.87082 28.5161 4.54562 25.738C3.94476 20.5974 3.94476 15.4042 4.54562 10.2636C4.87082 7.48403 7.10353 5.30382 9.87291 4.99466ZM24.7917 9.25007C24.4049 9.25007 24.0339 9.40372 23.7605 9.67721C23.487 9.9507 23.3333 10.3216 23.3333 10.7084C23.3333 11.0952 23.487 11.4661 23.7605 11.7396C24.0339 12.0131 24.4049 12.1667 24.7917 12.1667C25.1784 12.1667 25.5494 12.0131 25.8229 11.7396C26.0963 11.4661 26.25 11.0952 26.25 10.7084C26.25 10.3216 26.0963 9.9507 25.8229 9.67721C25.5494 9.40372 25.1784 9.25007 24.7917 9.25007ZM10.5729 18.0001C10.5729 16.1629 11.3027 14.401 12.6018 13.1019C13.9009 11.8028 15.6628 11.073 17.5 11.073C19.3372 11.073 21.0991 11.8028 22.3982 13.1019C23.6973 14.401 24.4271 16.1629 24.4271 18.0001C24.4271 19.8373 23.6973 21.5992 22.3982 22.8983C21.0991 24.1973 19.3372 24.9272 17.5 24.9272C15.6628 24.9272 13.9009 24.1973 12.6018 22.8983C11.3027 21.5992 10.5729 19.8373 10.5729 18.0001Z" fill="white"/>
</svg>
