<svg width="35" height="36" viewBox="0 0 35 36" fill="none" xmlns="http://www.w3.org/2000/svg">
<path d="M14.5834 22.3751L22.1522 18.0001L14.5834 13.6251V22.3751ZM31.4417 10.9563C31.6313 11.6417 31.7626 12.5605 31.8501 13.7272C31.9522 14.8938 31.9959 15.9001 31.9959 16.7751L32.0834 18.0001C32.0834 21.1938 31.8501 23.5417 31.4417 25.0438C31.0772 26.3563 30.2313 27.2022 28.9188 27.5667C28.2334 27.7563 26.9792 27.8876 25.0542 27.9751C23.1584 28.0772 21.423 28.1209 19.8188 28.1209L17.5001 28.2084C11.3897 28.2084 7.58341 27.9751 6.08133 27.5667C4.76883 27.2022 3.923 26.3563 3.55841 25.0438C3.36883 24.3584 3.23758 23.4397 3.15008 22.273C3.048 21.1063 3.00425 20.1001 3.00425 19.2251L2.91675 18.0001C2.91675 14.8063 3.15008 12.4584 3.55841 10.9563C3.923 9.64383 4.76883 8.798 6.08133 8.43341C6.76675 8.24383 8.02091 8.11258 9.94591 8.02508C11.8417 7.923 13.5772 7.87925 15.1813 7.87925L17.5001 7.79175C23.6105 7.79175 27.4167 8.02508 28.9188 8.43341C30.2313 8.798 31.0772 9.64383 31.4417 10.9563Z" fill="white"/>
</svg>
